<?xml version="1.0" encoding="UTF-8" standalone="no"?>
<!DOCTYPE svg PUBLIC "-//W3C//DTD SVG 1.1//EN"
 "http://www.w3.org/Graphics/SVG/1.1/DTD/svg11.dtd">
<!-- Generated by graphviz version 2.40.1 (0)
 -->
<!-- Title: snakemake_dag Pages: 1 -->
<svg width="301pt" height="476pt"
 viewBox="0.00 0.00 301.00 476.00" xmlns="http://www.w3.org/2000/svg" xmlns:xlink="http://www.w3.org/1999/xlink">
<g id="graph0" class="graph" transform="scale(1 1) rotate(0) translate(4 472)">
<title>snakemake_dag</title>
<polygon fill="#ffffff" stroke="transparent" points="-4,4 -4,-472 297,-472 297,4 -4,4"/>
<!-- 0 -->
<g id="node1" class="node">
<title>0</title>
<path fill="none" stroke="#56d8c9" stroke-width="2" stroke-dasharray="5,2" d="M161.5,-36C161.5,-36 131.5,-36 131.5,-36 125.5,-36 119.5,-30 119.5,-24 119.5,-24 119.5,-12 119.5,-12 119.5,-6 125.5,0 131.5,0 131.5,0 161.5,0 161.5,0 167.5,0 173.5,-6 173.5,-12 173.5,-12 173.5,-24 173.5,-24 173.5,-30 167.5,-36 161.5,-36"/>
<text text-anchor="middle" x="146.5" y="-15.5" font-family="sans" font-size="10.00" fill="#000000">all</text>
</g>
<!-- 1 -->
<g id="node2" class="node">
<title>1</title>
<path fill="none" stroke="#c6d856" stroke-width="2" stroke-dasharray="5,2" d="M181,-180C181,-180 112,-180 112,-180 106,-180 100,-174 100,-168 100,-168 100,-156 100,-156 100,-150 106,-144 112,-144 112,-144 181,-144 181,-144 187,-144 193,-150 193,-156 193,-156 193,-168 193,-168 193,-174 187,-180 181,-180"/>
<text text-anchor="middle" x="146.5" y="-159.5" font-family="sans" font-size="10.00" fill="#000000">make_SNP_plot</text>
</g>
<!-- 1&#45;&gt;0 -->
<g id="edge1" class="edge">
<title>1&#45;&gt;0</title>
<path fill="none" stroke="#c0c0c0" stroke-width="2" d="M133.1438,-143.5137C126.7492,-133.5235 119.782,-120.6657 116.5,-108 112.4865,-92.5115 112.4865,-87.4885 116.5,-72 118.8846,-62.7976 123.2146,-53.4938 127.8568,-45.2621"/>
<polygon fill="#c0c0c0" stroke="#c0c0c0" stroke-width="2" points="130.9813,-46.8582 133.1438,-36.4863 124.9854,-43.2459 130.9813,-46.8582"/>
</g>
<!-- 6 -->
<g id="node7" class="node">
<title>6</title>
<path fill="none" stroke="#d85656" stroke-width="2" stroke-dasharray="5,2" d="M253.5,-108C253.5,-108 137.5,-108 137.5,-108 131.5,-108 125.5,-102 125.5,-96 125.5,-96 125.5,-84 125.5,-84 125.5,-78 131.5,-72 137.5,-72 137.5,-72 253.5,-72 253.5,-72 259.5,-72 265.5,-78 265.5,-84 265.5,-84 265.5,-96 265.5,-96 265.5,-102 259.5,-108 253.5,-108"/>
<text text-anchor="middle" x="195.5" y="-87.5" font-family="sans" font-size="10.00" fill="#000000">delete_filtered_annot_vcf</text>
</g>
<!-- 1&#45;&gt;6 -->
<g id="edge7" class="edge">
<title>1&#45;&gt;6</title>
<path fill="none" stroke="#c0c0c0" stroke-width="2" d="M158.8648,-143.8314C164.4509,-135.6232 171.163,-125.7606 177.3072,-116.7323"/>
<polygon fill="#c0c0c0" stroke="#c0c0c0" stroke-width="2" points="180.236,-118.6496 182.9687,-108.4133 174.449,-114.7112 180.236,-118.6496"/>
</g>
<!-- 2 -->
<g id="node3" class="node">
<title>2</title>
<path fill="none" stroke="#56a2d8" stroke-width="2" stroke-dasharray="5,2" d="M187.5,-252C187.5,-252 105.5,-252 105.5,-252 99.5,-252 93.5,-246 93.5,-240 93.5,-240 93.5,-228 93.5,-228 93.5,-222 99.5,-216 105.5,-216 105.5,-216 187.5,-216 187.5,-216 193.5,-216 199.5,-222 199.5,-228 199.5,-228 199.5,-240 199.5,-240 199.5,-246 193.5,-252 187.5,-252"/>
<text text-anchor="middle" x="146.5" y="-231.5" font-family="sans" font-size="10.00" fill="#000000">get_plot_files_rule</text>
</g>
<!-- 2&#45;&gt;1 -->
<g id="edge3" class="edge">
<title>2&#45;&gt;1</title>
<path fill="none" stroke="#c0c0c0" stroke-width="2" d="M146.5,-215.8314C146.5,-208.131 146.5,-198.9743 146.5,-190.4166"/>
<polygon fill="#c0c0c0" stroke="#c0c0c0" stroke-width="2" points="150.0001,-190.4132 146.5,-180.4133 143.0001,-190.4133 150.0001,-190.4132"/>
</g>
<!-- 3 -->
<g id="node4" class="node">
<title>3</title>
<path fill="none" stroke="#56d87b" stroke-width="2" stroke-dasharray="5,2" d="M164,-324C164,-324 129,-324 129,-324 123,-324 117,-318 117,-312 117,-312 117,-300 117,-300 117,-294 123,-288 129,-288 129,-288 164,-288 164,-288 170,-288 176,-294 176,-300 176,-300 176,-312 176,-312 176,-318 170,-324 164,-324"/>
<text text-anchor="middle" x="146.5" y="-303.5" font-family="sans" font-size="10.00" fill="#000000">vcf_filter</text>
</g>
<!-- 3&#45;&gt;2 -->
<g id="edge4" class="edge">
<title>3&#45;&gt;2</title>
<path fill="none" stroke="#c0c0c0" stroke-width="2" d="M146.5,-287.8314C146.5,-280.131 146.5,-270.9743 146.5,-262.4166"/>
<polygon fill="#c0c0c0" stroke="#c0c0c0" stroke-width="2" points="150.0001,-262.4132 146.5,-252.4133 143.0001,-262.4133 150.0001,-262.4132"/>
</g>
<!-- 4 -->
<g id="node5" class="node">
<title>4</title>
<path fill="none" stroke="#d8a456" stroke-width="2" stroke-dasharray="5,2" d="M174.5,-396C174.5,-396 118.5,-396 118.5,-396 112.5,-396 106.5,-390 106.5,-384 106.5,-384 106.5,-372 106.5,-372 106.5,-366 112.5,-360 118.5,-360 118.5,-360 174.5,-360 174.5,-360 180.5,-360 186.5,-366 186.5,-372 186.5,-372 186.5,-384 186.5,-384 186.5,-390 180.5,-396 174.5,-396"/>
<text text-anchor="middle" x="146.5" y="-375.5" font-family="sans" font-size="10.00" fill="#000000">vcf_annotate</text>
</g>
<!-- 4&#45;&gt;3 -->
<g id="edge5" class="edge">
<title>4&#45;&gt;3</title>
<path fill="none" stroke="#c0c0c0" stroke-width="2" d="M146.5,-359.8314C146.5,-352.131 146.5,-342.9743 146.5,-334.4166"/>
<polygon fill="#c0c0c0" stroke="#c0c0c0" stroke-width="2" points="150.0001,-334.4132 146.5,-324.4133 143.0001,-334.4133 150.0001,-334.4132"/>
</g>
<!-- 5 -->
<g id="node6" class="node">
<title>5</title>
<path fill="none" stroke="#78d856" stroke-width="2" stroke-dasharray="5,2" d="M281,-468C281,-468 12,-468 12,-468 6,-468 0,-462 0,-456 0,-456 0,-444 0,-444 0,-438 6,-432 12,-432 12,-432 281,-432 281,-432 287,-432 293,-438 293,-444 293,-444 293,-456 293,-456 293,-462 287,-468 281,-468"/>
<text text-anchor="middle" x="146.5" y="-453" font-family="sans" font-size="10.00" fill="#000000">bcftools_view</text>
<text text-anchor="middle" x="146.5" y="-442" font-family="sans" font-size="10.00" fill="#000000">sample: HG00151&#45;ONT&#45;hg38&#45;R9&#45;LSK110&#45;guppy&#45;sup&#45;5mC</text>
</g>
<!-- 5&#45;&gt;4 -->
<g id="edge6" class="edge">
<title>5&#45;&gt;4</title>
<path fill="none" stroke="#c0c0c0" stroke-width="2" d="M146.5,-431.8314C146.5,-424.131 146.5,-414.9743 146.5,-406.4166"/>
<polygon fill="#c0c0c0" stroke="#c0c0c0" stroke-width="2" points="150.0001,-406.4132 146.5,-396.4133 143.0001,-406.4133 150.0001,-406.4132"/>
</g>
<!-- 6&#45;&gt;0 -->
<g id="edge2" class="edge">
<title>6&#45;&gt;0</title>
<path fill="none" stroke="#c0c0c0" stroke-width="2" d="M183.1352,-71.8314C177.5491,-63.6232 170.837,-53.7606 164.6928,-44.7323"/>
<polygon fill="#c0c0c0" stroke="#c0c0c0" stroke-width="2" points="167.551,-42.7112 159.0313,-36.4133 161.764,-46.6496 167.551,-42.7112"/>
</g>
</g>
</svg>
